<svg id="icon-circle-check-yellow" xmlns="http://www.w3.org/2000/svg" xmlns:xlink="http://www.w3.org/1999/xlink" width="20" height="20" viewBox="0 0 20 20">
  <defs>
    <clipPath id="clip-path">
      <rect id="長方形_196" data-name="長方形 196" width="20" height="20" fill="none"/>
    </clipPath>
  </defs>
  <g id="グループ_411" data-name="グループ 411" clip-path="url(#clip-path)">
    <path id="パス_2854" data-name="パス 2854" d="M20,10A10,10,0,1,1,10,0,10,10,0,0,1,20,10" fill="#fabe00"/>
    <path id="パス_2855" data-name="パス 2855" d="M99.178,108.6l4.8-6.923c.315.216.621.425.926.635.19.131.378.266.568.4a.336.336,0,0,1,.091.524c-.447.635-.9,1.265-1.343,1.9-.563.816-1.114,1.641-1.676,2.458q-.953,1.385-1.917,2.763c-.295.423-.6.84-.889,1.265-.07.1-.115.109-.212.033q-1.773-1.393-3.553-2.778c-.31-.242-.619-.485-.935-.72-.094-.07-.107-.113-.028-.212q.587-.733,1.154-1.48c.083-.109.153-.1.242-.028l1.926,1.5.845.657" transform="translate(-90.304 -96.693)" fill="#fff"/>
  </g>
</svg>
