<svg id="logo-ipet-ins" xmlns="http://www.w3.org/2000/svg" width="200" height="25.144" viewBox="0 0 200 25.144">
  <path id="パス_83" data-name="パス 83" d="M5.088,9.931C4.786,9.655,2.5,7.556,1.941,6.9,1.345,6.2,0,4.8,0,3.3A3.153,3.153,0,0,1,2.657,0,2.654,2.654,0,0,1,5.108,1.463,2.638,2.638,0,0,1,7.558,0a3.152,3.152,0,0,1,2.654,3.3c0,1.5-1.344,2.9-1.94,3.6-.558.654-2.845,2.754-3.147,3.029Zm.02.017" fill="#e50012"/>
  <path id="パス_84" data-name="パス 84" d="M6.953,21.223H9.762V31.448H6.953Z" transform="translate(-3.245 -9.904)" fill="#e50012"/>
  <path id="パス_85" data-name="パス 85" d="M16.371,20.982h2.669v1.306h.04a3.4,3.4,0,0,1,3.045-1.582c3.2,0,4.646,2.59,4.646,5.5,0,2.729-1.5,5.28-4.488,5.28a3.626,3.626,0,0,1-3.065-1.542h-.04v4.865H16.372V20.982Zm7.593,5.143c0-1.622-.653-3.3-2.452-3.3-1.84,0-2.433,1.642-2.433,3.3s.632,3.242,2.452,3.242C23.371,29.367,23.965,27.786,23.965,26.125Z" transform="translate(-7.64 -9.663)" fill="#e50012"/>
  <path id="パス_86" data-name="パス 86" d="M40.906,26.777c.079,1.78.948,2.59,2.51,2.59a2.309,2.309,0,0,0,2.214-1.325h2.475a4.6,4.6,0,0,1-4.788,3.441c-3.223,0-5.22-2.214-5.22-5.378a5.127,5.127,0,0,1,5.22-5.4c3.481,0,5.162,2.928,4.963,6.072H40.906ZM45.473,25c-.258-1.423-.871-2.175-2.234-2.175A2.211,2.211,0,0,0,40.906,25h4.567Z" transform="translate(-17.779 -9.662)" fill="#e50012"/>
  <path id="パス_87" data-name="パス 87" d="M63.032,18.542h2.057v1.879H63.032v5.062c0,.949.239,1.186,1.187,1.186a4.349,4.349,0,0,0,.871-.078v2.194a10.6,10.6,0,0,1-1.642.1c-1.72,0-3.223-.4-3.223-2.433V20.421h-1.7V18.542h1.7V15.478h2.807Z" transform="translate(-27.311 -7.223)" fill="#e50012"/>
  <path id="パス_88" data-name="パス 88" d="M87.314,27.1l-.577-.828A6.44,6.44,0,0,0,89.408,23.2a8.658,8.658,0,0,0,.251-.865H80.9V21.305H91.4l.363.314a8.692,8.692,0,0,1-1.756,3.625A8.107,8.107,0,0,1,87.314,27.1Zm-5.82,4.026-.439-.89A4.5,4.5,0,0,0,84.542,26.7a24.12,24.12,0,0,0,.163-3.738h1.769q0,1.944-.075,2.8a7.576,7.576,0,0,1-.539,2.371Q84.817,30.448,81.494,31.126Z" transform="translate(-37.755 -9.942)" fill="#4c4948"/>
  <path id="パス_89" data-name="パス 89" d="M108.216,30.265V24.822a20.186,20.186,0,0,1-5.092,1.756l-.389-1a20.435,20.435,0,0,0,4.716-2.044,11.837,11.837,0,0,0,4.051-3.775l1.731.59a13.112,13.112,0,0,1-3.3,3.424v6.5h-1.718Z" transform="translate(-47.943 -9.219)" fill="#4c4948"/>
  <path id="パス_90" data-name="パス 90" d="M135.324,30.19q-.214-.263-2.985-3.712-1.555-1.957-2.646-3.123a.406.406,0,0,0-.314-.138.5.5,0,0,0-.464.226q-.7,1.191-1.4,2.371a32.245,32.245,0,0,1-1.769,2.722l-1.166-.966q.6-.79,1.687-2.452t1.662-2.439A1.722,1.722,0,0,1,129.292,22a1.993,1.993,0,0,1,1.542.64q2.847,2.81,5.933,6.259Zm-1.317-6.51a1.3,1.3,0,0,1-.953-.339,1.339,1.339,0,0,1,.007-1.894,1.425,1.425,0,0,1,.984-.4,1.288,1.288,0,0,1,.972.376,1.346,1.346,0,0,1,.408.966,1.119,1.119,0,0,1-.408.922A1.564,1.564,0,0,1,134.007,23.68Zm.025-2.044a.728.728,0,0,0,0,1.455.75.75,0,0,0,.74-.74.722.722,0,0,0-.232-.5A.707.707,0,0,0,134.033,21.636Z" transform="translate(-58.135 -9.821)" fill="#4c4948"/>
  <path id="パス_91" data-name="パス 91" d="M150.843,28.334a21.343,21.343,0,0,0-1.367-4.014l.928-.314a14.213,14.213,0,0,1,2.019,3.825Zm6.284.665q-1.669,2.634-6.058,3.123l-.3-.991a6.423,6.423,0,0,0,5.155-3.085,10.461,10.461,0,0,0,.965-4.553l1.58.025A11.033,11.033,0,0,1,157.126,29Zm-3.562-1.141a19.913,19.913,0,0,0-1.317-4.039l.941-.3a14.645,14.645,0,0,1,1.982,3.863Z" transform="translate(-69.755 -10.963)" fill="#4c4948"/>
  <path id="パス_92" data-name="パス 92" d="M175.5,30.27h-1.756V19.659H175.5v3.06q1.706.552,3.449,1.292a19.869,19.869,0,0,1,2.935,1.455l-1.242,1.455a24.261,24.261,0,0,0-5.142-2.973Z" transform="translate(-81.081 -9.174)" fill="#4c4948"/>
  <path id="パス_93" data-name="パス 93" d="M194.725,25.333c-.234.084-.548.188-.941.314v3.424a1.086,1.086,0,0,1-.489.966,1.636,1.636,0,0,1-.941.263h-1.43l-.188-1.355h1c.276,0,.414-.121.414-.364V26.136q-.978.275-1.442.363l-.238-1.329q.8-.075,1.68-.213V22.5h-1.442v-.878h1.442V19.4h1.631v2.22h.978V22.5h-.978v2.132a8.3,8.3,0,0,0,.865-.225ZM197.848,29a6.355,6.355,0,0,1-1.743.841,12.9,12.9,0,0,1-1.631.452l-.414-.9a7.489,7.489,0,0,0,1.179-.414,8.7,8.7,0,0,0,1.329-.715H195V22.612h6.823v5.644h-1.856a9.232,9.232,0,0,0,2.609.865l-.652,1.179a6.858,6.858,0,0,1-1.643-.615,8.021,8.021,0,0,1-1.329-.8l.64-.627H197.12Zm-2.609-6.911V19.6H201.5v2.484Zm4.9,2.158v-.727h-3.537v.727Zm-3.537,1.518h3.537v-.753h-3.537Zm3.537.778h-3.537v.815h3.537Zm-.188-5.242V20.4h-3.249v.89Z" transform="translate(-88.888 -9.054)" fill="#4c4948"/>
  <path id="パス_94" data-name="パス 94" d="M214.156,25.731V24.8h4.867v-.827h-4.051V23.11h4.051v-.753h-3.061v-.865h3.061v-.677h-3.337v1.192h-1.4V19.911h4.691V18.882h1.718v1.029h4.753v2.095h-1.391V20.814h-3.324v.677h2.959v.865h-2.959v.753H224.9v.865h-4.176V24.8h4.816v.928Zm8.641,3.776H216.8v.426h-1.644V26.408h9.307v3.524H222.8Zm-5.995-.929H222.8V27.3H216.8Z" transform="translate(-99.939 -8.812)" fill="#4c4948"/>
  <path id="パス_95" data-name="パス 95" d="M240.693,19.367a14.457,14.457,0,0,1-.9,2.746V30.2h-1.656V24.96q-.126.188-.89,1.229l-.765-.665a16.529,16.529,0,0,0,2.5-6.384Zm-.476,6.284v-.928h3.135V23.455h-2.609v-3.85h6.974v3.85h-2.685v1.267h3.274v.928h-2.973a6.415,6.415,0,0,0,1.116,1.2,13.009,13.009,0,0,0,2.333,1.63l-1.154,1.242a9.3,9.3,0,0,1-2.6-2.608v3h-1.68V27.431a5.915,5.915,0,0,1-.426.476,11.213,11.213,0,0,1-2.433,1.793l-.6-.878a10.521,10.521,0,0,0,1.894-1.643,6.882,6.882,0,0,0,1.078-1.53h-2.646Zm5.87-3.085V20.5h-3.75v2.069Z" transform="translate(-110.357 -8.932)" fill="#4c4948"/>
  <path id="パス_96" data-name="パス 96" d="M264.8,19.8q-.113.439-.527,1.542a11.38,11.38,0,0,1-.728,1.706,4.181,4.181,0,0,1,1.1,2.709q.063,2.321-1.467,2.484c-.167.017-.413.025-.739.025l-.214-.953v2.859H260.8v-10.7h3.688Zm-2.571,7.162a4.261,4.261,0,0,0,.64-.012q.376-.063.376-1.166a4.382,4.382,0,0,0-.7-2.421.45.45,0,0,1-.026-.439,8.008,8.008,0,0,0,.3-1.267q.126-.665.238-1.329h-.827v6.635Zm10.184-5.368-.953,1.3a9.759,9.759,0,0,1-1.041-.627v.364h-1.542v.89H271.4v3.412h-2.145a6.377,6.377,0,0,0,3.035,1.781L271.2,30.072a5.731,5.731,0,0,1-2.9-2.433,5.828,5.828,0,0,1-3.725,2.458l-.477-.916a4.7,4.7,0,0,0,1.631-.828,4.08,4.08,0,0,0,1.217-1.417h-1.982V23.524h2.357v-.89h-1.267V22.32a11.289,11.289,0,0,1-1.242.677l-.59-.715a8.193,8.193,0,0,0,1.831-1.53,5.761,5.761,0,0,0,1.129-1.706H268.9a4.637,4.637,0,0,0,1.467,1.467A8.744,8.744,0,0,0,272.415,21.594Zm-5.092,2.772h-.89v1.618h.89Zm2.346-2.672a5.183,5.183,0,0,1-1.355-1.593,5.9,5.9,0,0,1-1.392,1.593Zm.212,4.29V24.366h-1v1.618Z" transform="translate(-121.707 -8.888)" fill="#4c4948"/>
  <path id="パス_97" data-name="パス 97" d="M284.649,26.139a11.714,11.714,0,0,1-1,1.58l-.739-.614A10.13,10.13,0,0,0,284,24.922a11.107,11.107,0,0,0,.652-2.345V22.54h-1.342v-.89h1.342V19.317h1.505V21.65h.89v.89h-.89v.627a4.357,4.357,0,0,0,.665.941q.289.314.577.614v-.89h2.722V21.912h-1.028a6.826,6.826,0,0,1-.966,1.58l-.978-.476a8.553,8.553,0,0,0,1.091-3.55l1.542.138A7.71,7.71,0,0,1,289.453,21h.665V19.165h1.668V21h2.5v.916h-2.5v1.919h2.8v.991h-2.6a10.188,10.188,0,0,0,3.123,3.361l-1.091,1.254a10.542,10.542,0,0,1-2.271-2.9v3.575h-1.605v-3a11.285,11.285,0,0,1-2.646,2.408l-.615-.79a9.482,9.482,0,0,0,1.644-1.769,11.035,11.035,0,0,0,1.292-2.145H287.4v-.05l-.59.89a4.581,4.581,0,0,1-.652-.79V30.2h-1.505Z" transform="translate(-132.023 -8.944)" fill="#4c4948"/>
  <path id="パス_98" data-name="パス 98" d="M317.647,20.858l-.854.6h1.318v.953h-3.638l.013.125a16.9,16.9,0,0,0,.339,2.622,6.47,6.47,0,0,0,1.48,3.224.165.165,0,0,0,.138.063q.175,0,.2-.2.113-.552.251-2.22l1.3.251a26.742,26.742,0,0,1-.214,2.784,1.053,1.053,0,0,1-.439.809,1.571,1.571,0,0,1-.954.295,1.806,1.806,0,0,1-1.392-.6,7.9,7.9,0,0,1-1.631-2.608,14.148,14.148,0,0,1-.8-4.314l-.012-.225h-6.045v-.953h6.02v-2.22h1.743q0,.476-.012,1.229v.991h1.605a9.778,9.778,0,0,0-1.392-1.605l.739-.665A7.347,7.347,0,0,1,317.647,20.858ZM307.2,24.809v-.928h5.543v.928h-1.769v3.3q1.455-.113,2.522-.276V28.96q-1.017.214-3.337.539-2.132.288-3.148.389l-.251-1.518q.74-.037,2.508-.138V24.809H307.2Z" transform="translate(-143.132 -8.956)" fill="#4c4948"/>
  <path id="パス_99" data-name="パス 99" d="M331.881,23.908v-.6a12.726,12.726,0,0,1-2.158.941l-.452-.916a9.01,9.01,0,0,0,1.969-1.054,11.552,11.552,0,0,0,1.931-1.631,8.479,8.479,0,0,0,1.141-1.505h1.643a7.566,7.566,0,0,0,2.283,2.12,12.074,12.074,0,0,0,3.174,1.505l-1.041,1.43a9.068,9.068,0,0,1-1.681-.878v.59Zm2.91,2.433a20.451,20.451,0,0,1-1.581,2.182q2.571-.087,4.3-.225-.652-.827-1.216-1.442l1.091-.5A18.619,18.619,0,0,1,339.13,27.9a13.771,13.771,0,0,1,1.467,1.618l-1.693.715q-.276-.426-.627-.9-4.226.615-8.027.8l-.239-1.53q.665,0,1.606-.025a19.934,19.934,0,0,0,1.317-2.233h-3.086v-.978h10.837v.978h-5.894Zm-2.309-3.386h5.682a11.255,11.255,0,0,1-2.646-2.559A11.835,11.835,0,0,1,332.483,22.955Z" transform="translate(-153.66 -8.932)" fill="#4c4948"/>
  <path id="パス_100" data-name="パス 100" d="M356.073,30.377h-1.542v-4.4q-.626.476-1.43,1l-.489-.841a10.586,10.586,0,0,0,2.064-2.02,6.234,6.234,0,0,0,1.185-2.095h-2.91v-.941h1.605V19.352h1.556v1.731h1.443l.276.276a8.078,8.078,0,0,1-1.542,2.96q.564.539,1.58,1.442l-.827,1q-.489-.652-.966-1.192v4.8Zm1.568-6.86v-.966h2.4v-3.2h1.731v3.2h2.458v.966h-2.458V28.9h2.784v.978h-7.513V28.9h3v-5.38Z" transform="translate(-164.552 -9.031)" fill="#4c4948"/>
</svg>
