<svg xmlns="http://www.w3.org/2000/svg" width="75.529" height="13.199" viewBox="0 0 75.529 13.199">
  <g id="logo-dai-ichi-life" transform="translate(-63.84 -34.174)">
    <path id="パス_101" data-name="パス 101" d="M119.7,64.076h0v.254c0,4.539.986,10.459,5.678,12.885l.119.061.117-.061c4.692-2.425,5.678-8.346,5.678-12.885v-.254Zm3.781,9.164h0a6.092,6.092,0,0,0,.53-1.4l.016,0a18.113,18.113,0,0,0,2.007-.461A5.1,5.1,0,0,1,123.481,73.24Zm1.056-4.635h0l2.136-.189a4.982,4.982,0,0,0,.792-.149,8.815,8.815,0,0,1-.911,2.323,13.732,13.732,0,0,1-2.4.633A21.107,21.107,0,0,0,124.537,68.605Zm2.891,1.541h0a9.708,9.708,0,0,0,.68-2.1,3.971,3.971,0,0,0,1.977-1.82A5.544,5.544,0,0,1,127.428,70.147Zm-1.989,2.672h0a7,7,0,0,0,1.5-1.762,6.718,6.718,0,0,0,2.3-1.713A7.62,7.62,0,0,1,125.439,72.818Zm2.888-6.967h0c0-.363-.016-.722-.052-1.075h1.647a3.306,3.306,0,0,1-1.7,2.567A11.044,11.044,0,0,0,128.327,65.852Zm-1.71,1.99h0l-2.035.179c.046-.7.07-1.424.07-2.169,0-.363,0-.722-.016-1.075h3.057a10.184,10.184,0,0,1,.056,1.075,10.477,10.477,0,0,1-.15,1.774A4.485,4.485,0,0,1,126.617,67.842Zm-6.263-3.065h3.7c.012.354.019.712.019,1.075,0,.763-.025,1.51-.075,2.22l-3.391.3A24.383,24.383,0,0,1,120.354,64.777Zm.348,4.169h0l3.246-.286a19.739,19.739,0,0,1-.407,2.667v0c-.75.116-1.5.2-2.136.233A15.423,15.423,0,0,1,120.7,68.945Zm1.59,4.459h0a9.357,9.357,0,0,1-.661-1.273c.542-.037,1.14-.1,1.75-.191C123.042,73.032,122.7,73.4,122.292,73.4Z" transform="translate(-55.86 -29.902)" fill="#92826b"/>
    <path id="パス_102" data-name="パス 102" d="M251.319,70.335H246.2a.1.1,0,0,0-.1.1v.7a.094.094,0,0,0,.1.1h4.309a4.916,4.916,0,0,1-3.655,4.823.1.1,0,0,0-.073.093v.707a.093.093,0,0,0,.037.075.091.091,0,0,0,.058.021.058.058,0,0,0,.021,0c2.741-.608,4.512-3.025,4.512-6.159v-.349A.094.094,0,0,0,251.319,70.335Z" transform="translate(-114.85 -32.823)"/>
    <path id="パス_103" data-name="パス 103" d="M258.047,69.191h0a1.184,1.184,0,1,0,1.19,1.182A1.186,1.186,0,0,0,258.047,69.191Zm0,1.792h0a.609.609,0,1,1,.612-.61A.61.61,0,0,1,258.047,70.983Z" transform="translate(-119.868 -32.289)"/>
    <path id="パス_104" data-name="パス 104" d="M219.057,69.191h-.421a.094.094,0,0,0-.1.1v1.5a.1.1,0,0,0,.1.1h.421a.1.1,0,0,0,.1-.1v-1.5A.094.094,0,0,0,219.057,69.191Z" transform="translate(-101.986 -32.289)"/>
    <path id="パス_105" data-name="パス 105" d="M220.984,69.191h-.42a.1.1,0,0,0-.1.1v1.5a.1.1,0,0,0,.1.1h.42a.1.1,0,0,0,.1-.1v-1.5A.1.1,0,0,0,220.984,69.191Z" transform="translate(-102.885 -32.289)"/>
    <path id="パス_106" data-name="パス 106" d="M213.1,70.335h-3.851a.1.1,0,0,0-.093.07l-.07.256a3.14,3.14,0,0,1-1.25,2.008.1.1,0,0,0-.047.084v.768a.09.09,0,0,0,.042.079.094.094,0,0,0,.089.009,3.508,3.508,0,0,0,1.928-2.388h2.446a5.187,5.187,0,0,1-3.386,4.807.093.093,0,0,0-.061.088v.731a.1.1,0,0,0,.042.079.091.091,0,0,0,.054.016.152.152,0,0,0,.035,0,6.163,6.163,0,0,0,4.218-6.159v-.349A.093.093,0,0,0,213.1,70.335Z" transform="translate(-96.968 -32.823)"/>
    <path id="パス_107" data-name="パス 107" d="M241.215,75.362h-4.821a.1.1,0,0,0-.1.1v.805a.1.1,0,0,0,.1.1h4.821a.1.1,0,0,0,.1-.1v-.805A.094.094,0,0,0,241.215,75.362Z" transform="translate(-110.273 -35.169)"/>
    <path id="パス_108" data-name="パス 108" d="M169.716,74.925H162.55a.1.1,0,0,0-.1.1v.7a.094.094,0,0,0,.1.1h7.167a.1.1,0,0,0,.1-.1v-.7A.1.1,0,0,0,169.716,74.925Z" transform="translate(-75.812 -34.965)"/>
    <path id="パス_109" data-name="パス 109" d="M148.456,70.723h0c.093-.112.168-.212.231-.3h.624v.563a.1.1,0,0,0,.1.1h.563a.1.1,0,0,0,.1-.1v-.561l.743,0a.1.1,0,0,0,.1-.1V69.87a.1.1,0,0,0-.1-.1h-1.715l.035-.07c.056-.109.1-.2.154-.324a.1.1,0,0,0,0-.084.087.087,0,0,0-.067-.046l-.635-.1a.1.1,0,0,0-.1.061,4.349,4.349,0,0,1-.916,1.382.1.1,0,0,0-.019.1.093.093,0,0,0,.086.061h.759A.1.1,0,0,0,148.456,70.723Z" transform="translate(-68.847 -32.271)"/>
    <path id="パス_110" data-name="パス 110" d="M157.613,69.765h-2.381c.065-.147.107-.252.171-.426a.1.1,0,0,0-.007-.082.1.1,0,0,0-.07-.046l-.631-.076a.091.091,0,0,0-.1.067,4.023,4.023,0,0,1-.722,1.392.092.092,0,0,0-.012.1.1.1,0,0,0,.086.056h.706a.1.1,0,0,0,.08-.044,3.057,3.057,0,0,0,.18-.293h.493v.563a.1.1,0,0,0,.1.1h.561a.1.1,0,0,0,.1-.1v-.563h1.456a.1.1,0,0,0,.1-.1V69.86A.094.094,0,0,0,157.613,69.765Z" transform="translate(-71.796 -32.262)"/>
    <path id="パス_111" data-name="パス 111" d="M154.644,75.55H151.73v-.661h2.529a.1.1,0,0,0,.1-.1V73.148a.1.1,0,0,0-.1-.1h-5.945a.1.1,0,0,0-.1.1V73.6a.1.1,0,0,0,.1.1h2.591v.593h-2.419a.1.1,0,0,0-.1.082l-.28,1.7a.092.092,0,0,0,.021.076.091.091,0,0,0,.073.035h2.075a6.385,6.385,0,0,1-2.493,1.161.1.1,0,0,0-.07.093v.584a.1.1,0,0,0,.112.1c.107-.021.264-.054.411-.1a6.831,6.831,0,0,0,2.666-1.548v1.841a.1.1,0,0,0,.1.1h.633a.1.1,0,0,0,.1-.1V76.184h2.139a3.562,3.562,0,0,1-.157.773c-.063.186-.147.235-.416.235a6.738,6.738,0,0,1-.839-.073.1.1,0,0,0-.077.021.1.1,0,0,0-.033.072v.54a.1.1,0,0,0,.077.1.734.734,0,0,0,.1.014c.36.035.722.054.972.054.584,0,.823-.123.979-.514a6.154,6.154,0,0,0,.269-1.75.089.089,0,0,0-.026-.07A.1.1,0,0,0,154.644,75.55Zm-2.914-1.857h1.795v.593H151.73Zm-.825,1.857H149.08l.084-.661h1.741Z" transform="translate(-68.934 -34.091)"/>
    <path id="パス_112" data-name="パス 112" d="M184.833,75.535h-2.952V73.771h2.409a.094.094,0,0,0,.1-.1v-.589a.1.1,0,0,0-.1-.1h-2.409V71.383h2.645a.1.1,0,0,0,.1-.1v-.6a.1.1,0,0,0-.1-.1h-2.645v-1.3a.1.1,0,0,0-.1-.1H181.1a.094.094,0,0,0-.1.1v1.3h-1.4a8.86,8.86,0,0,0,.353-1.078.1.1,0,0,0-.019-.084.09.09,0,0,0-.075-.037h-.72a.1.1,0,0,0-.093.072,8.374,8.374,0,0,1-1.388,2.775.092.092,0,0,0-.012.1.091.091,0,0,0,.086.056h.827a.087.087,0,0,0,.075-.039,6.557,6.557,0,0,0,.6-.969H181v1.608h-2.561a.1.1,0,0,0-.1.1v.589a.1.1,0,0,0,.1.1H181v1.764H177.95a.1.1,0,0,0-.1.1v.605a.094.094,0,0,0,.1.1h6.884a.094.094,0,0,0,.1-.1V75.63A.1.1,0,0,0,184.833,75.535Z" transform="translate(-82.899 -32.289)"/>
    <path id="パス_113" data-name="パス 113" d="M201.827,75.118h-2.7a.094.094,0,0,0-.1.1v4.064a.1.1,0,0,0,.1.1h.631a.1.1,0,0,0,.1-.1V75.8h1.269v1.561c0,.174-.042.2-.166.2a6.832,6.832,0,0,1-.708-.056.09.09,0,0,0-.075.024.1.1,0,0,0-.033.073v.514a.094.094,0,0,0,.086.1l.056,0a6.13,6.13,0,0,0,.9.056c.552,0,.739-.172.739-.684V75.214A.1.1,0,0,0,201.827,75.118Z" transform="translate(-92.881 -35.055)"/>
    <path id="パス_114" data-name="パス 114" d="M195.618,75.162h-2.356a.1.1,0,0,0-.1.1v2.691a.094.094,0,0,0,.1.1h2.356a.094.094,0,0,0,.1-.1V75.257A.1.1,0,0,0,195.618,75.162Zm-.649,2.2H193.95V75.834h1.019Z" transform="translate(-90.144 -35.075)"/>
    <path id="パス_115" data-name="パス 115" d="M199.081,71.129h0a6.253,6.253,0,0,1-3.054-1.9.1.1,0,0,0-.075-.035h-.923a.1.1,0,0,0-.08.04,5.7,5.7,0,0,1-2.924,2.074.1.1,0,0,0-.063.091v.647a.093.093,0,0,0,.037.075.091.091,0,0,0,.058.021.157.157,0,0,0,.026,0l.138-.04a8.105,8.105,0,0,0,1.692-.826v.342a.094.094,0,0,0,.1.1h3.059a.1.1,0,0,0,.1-.1V71.2a10.982,10.982,0,0,0,1.71.773l.138.056a.1.1,0,0,0,.091-.009.1.1,0,0,0,.042-.079v-.717A.1.1,0,0,0,199.081,71.129Zm-4.8-.111h0a5.685,5.685,0,0,0,1.206-1.164,6.157,6.157,0,0,0,1.378,1.164Z" transform="translate(-89.583 -32.289)"/>
    <path id="パス_116" data-name="パス 116" d="M230.878,73.062h-.7a.1.1,0,0,0-.1.077,2.959,2.959,0,0,1-2.045,2.625V70.326a.094.094,0,0,0-.1-.1h-.68a.1.1,0,0,0-.1.1v6.52a.094.094,0,0,0,.033.072.091.091,0,0,0,.063.025l.009,0c2.578-.256,3.316-2.046,3.7-3.761a.1.1,0,0,0-.021-.079A.093.093,0,0,0,230.878,73.062Z" transform="translate(-106.012 -32.774)"/>
    <path id="パス_117" data-name="パス 117" d="M223.95,70.229h-.68a.1.1,0,0,0-.1.1v2.284c0,2.435-.414,3.075-.86,3.405a.094.094,0,0,0-.04.076v.787a.1.1,0,0,0,.046.081.093.093,0,0,0,.049.014.138.138,0,0,0,.044-.009c1.059-.533,1.633-1.385,1.633-4.355V70.324A.1.1,0,0,0,223.95,70.229Z" transform="translate(-103.728 -32.774)"/>
  </g>
</svg>
